<?xml version="1.0" encoding="UTF-8" standalone="no"?>
<svg
   viewBox="0 0 309.79999 126.4"
   id="Layer_1"
   overflow="hidden"
   version="1.1"
   sodipodi:docname="devzone.svg"
   width="309.79999"
   height="126.4"
   inkscape:version="1.1.1 (3bf5ae0d25, 2021-09-20)"
   xmlns:inkscape="http://www.inkscape.org/namespaces/inkscape"
   xmlns:sodipodi="http://sodipodi.sourceforge.net/DTD/sodipodi-0.dtd"
   xmlns="http://www.w3.org/2000/svg"
   xmlns:svg="http://www.w3.org/2000/svg">
  <defs
     id="defs27" />
  <sodipodi:namedview
     id="namedview25"
     pagecolor="#ffffff"
     bordercolor="#666666"
     borderopacity="1.0"
     inkscape:pageshadow="2"
     inkscape:pageopacity="0.0"
     inkscape:pagecheckerboard="0"
     showgrid="false"
     fit-margin-top="0"
     fit-margin-left="0"
     fit-margin-right="0"
     fit-margin-bottom="0"
     inkscape:zoom="2.5052265"
     inkscape:cx="18.162031"
     inkscape:cy="63.866481"
     inkscape:window-width="1920"
     inkscape:window-height="1171"
     inkscape:window-x="0"
     inkscape:window-y="0"
     inkscape:window-maximized="1"
     inkscape:current-layer="Layer_1" />
  <g
     id="g22"
     transform="translate(-82,-79.4)">
    <path
       d="m 125.4,205.8 h -9.6 c -5.5,0 -10.2,-2 -14.1,-5.9 -3.9,-3.9 -5.9,-8.6 -5.9,-14.1 v -26 c 0,-3.3 -1.2,-6.2 -3.6,-8.7 -2.3,-2.4 -5.2,-3.6 -8.5,-3.6 H 82 v -10.4 h 1.6 c 3.3,0 6.2,-1.2 8.6,-3.6 2.4,-2.5 3.6,-5.4 3.6,-8.7 V 99.4 c 0,-5.5 2,-10.2 5.9,-14.1 3.9,-3.9 8.6,-5.9 14.1,-5.9 h 9.6 v 9 h -9.6 c -2.7,0 -5,1 -6.9,2.9 -1.9,1.9 -2.8,4.2 -2.8,6.9 v 26.4 c 0,4 -1.1,7.7 -3.3,11 -2.3,3.6 -5.4,5.8 -9.1,6.7 4,1.4 7.2,3.7 9.4,7 2,3.2 3,6.7 3,10.6 V 187 c 0,2.7 0.9,5 2.8,6.9 2,1.9 4.3,2.8 6.9,2.8 h 9.6 z"
       fill="#d0df00"
       id="path2" />
    <g
       id="g20">
      <g
         id="g18">
        <path
           d="m 161.2,156.3 c 0,3.7 -1.3,6.8 -3.9,9.4 -2.6,2.6 -5.7,3.9 -9.3,3.9 H 134.8 V 115.4 H 148 c 3.6,0 6.7,1.3 9.3,3.9 2.6,2.6 3.9,5.8 3.9,9.4 z m -8.2,5.9 c 1.4,-1.5 2.1,-3.2 2.1,-5.1 v -29 c 0,-1.9 -0.7,-3.6 -2.1,-5.1 -1.4,-1.4 -3.1,-2.1 -5.1,-2.1 h -7.1 v 43.4 h 7.1 c 2.1,0 3.7,-0.7 5.1,-2.1 z"
           fill="#333d48"
           id="path4" />
        <path
           d="M 199.3,150 H 179 v 7.7 c 0,2 0.7,3.7 2.1,5.1 1.4,1.4 3.1,2.1 5.1,2.1 3.8,0 6.6,-1.7 8.3,-5.2 l 4.6,3.2 c -3.1,4.9 -7.4,7.4 -12.9,7.4 -3.7,0 -6.8,-1.3 -9.3,-3.9 -2.6,-2.6 -3.9,-5.8 -3.9,-9.5 v -16.3 c 0,-3.7 1.3,-6.9 3.9,-9.4 2.6,-2.6 5.7,-3.9 9.3,-3.9 3.6,0 6.7,1.3 9.3,3.9 2.6,2.6 3.9,5.8 3.9,9.4 v 9.4 z m -6.1,-5.4 v -4.7 c 0,-1.9 -0.7,-3.6 -2.1,-5.1 -1.4,-1.4 -3.1,-2.1 -5,-2.1 -2,0 -3.7,0.7 -5.1,2.1 -1.4,1.4 -2.1,3.1 -2.1,5.1 v 4.7 z"
           fill="#333d48"
           id="path6" />
        <path
           d="m 240.6,128 -12.8,41.6 h -6.2 L 208.9,128 h 6.3 l 9.6,33.4 9.6,-33.4 z"
           fill="#333d48"
           id="path8" />
        <path
           d="m 276.6,169.6 h -26.3 v -7.9 L 270,120.8 h -19.7 v -5.4 h 26.3 v 5.7 l -20.7,43.1 h 20.7 z"
           fill="#333d48"
           id="path10" />
        <path
           d="m 314.3,157 c 0,3.7 -1.3,6.8 -3.9,9.4 -2.6,2.6 -5.7,3.9 -9.3,3.9 -3.7,0 -6.8,-1.3 -9.3,-3.9 -2.6,-2.6 -3.9,-5.7 -3.9,-9.4 v -16.3 c 0,-3.7 1.3,-6.9 3.9,-9.4 2.6,-2.6 5.7,-3.9 9.3,-3.9 3.6,0 6.7,1.3 9.3,3.9 2.6,2.6 3.9,5.8 3.9,9.4 z m -8.1,5.9 c 1.4,-1.4 2.1,-3.1 2.1,-5.1 V 140 c 0,-2 -0.7,-3.7 -2.1,-5.1 -1.4,-1.4 -3.1,-2.1 -5,-2.1 -2,0 -3.6,0.7 -5.1,2.1 -1.5,1.4 -2.1,3.1 -2.1,5.1 v 17.8 c 0,2 0.7,3.7 2.1,5.1 1.4,1.4 3.1,2.1 5.1,2.1 2,0 3.6,-0.7 5,-2.1 z"
           fill="#333d48"
           id="path12" />
        <path
           d="m 353,169.6 h -6 V 140 c 0,-2 -0.5,-3.7 -1.6,-5.1 -1.1,-1.4 -2.7,-2.1 -4.5,-2.1 -3.3,0 -6.1,1.5 -8.2,4.5 v 32.3 h -6 V 128 h 6 v 4.7 c 2.5,-3.5 5.8,-5.2 9.7,-5.2 3,0 5.5,1.1 7.6,3.3 2.1,2.3 3.1,5.2 3.1,8.9 v 29.9 z"
           fill="#333d48"
           id="path14" />
        <path
           d="m 391.7,150 h -20.3 v 7.7 c 0,2 0.7,3.7 2.1,5.1 1.4,1.4 3.1,2.1 5.1,2.1 3.8,0 6.6,-1.7 8.3,-5.2 l 4.6,3.2 c -3.1,4.9 -7.4,7.4 -12.9,7.4 -3.7,0 -6.8,-1.3 -9.3,-3.9 -2.6,-2.6 -3.9,-5.8 -3.9,-9.5 v -16.3 c 0,-3.7 1.3,-6.9 3.9,-9.4 2.6,-2.6 5.7,-3.9 9.3,-3.9 3.6,0 6.7,1.3 9.3,3.9 2.6,2.6 3.9,5.8 3.9,9.4 v 9.4 z m -6.1,-5.4 v -4.7 c 0,-1.9 -0.7,-3.6 -2.1,-5.1 -1.4,-1.4 -3.1,-2.1 -5,-2.1 -2,0 -3.7,0.7 -5.1,2.1 -1.4,1.4 -2.1,3.1 -2.1,5.1 v 4.7 z"
           fill="#333d48"
           id="path16" />
      </g>
    </g>
  </g>
</svg>
